<svg width="128" height="128" viewBox="0 0 128 128" fill="none" xmlns="http://www.w3.org/2000/svg">
<g clip-path="url(#clip0_1_2)">
<rect width="128" height="128" rx="20" fill="black"/>
<path d="M27.216 110.536C19.8773 110.536 13.392 109.043 7.76 106.056C2.21333 103.069 -2.096 98.8453 -5.168 93.384C-8.24 87.9227 -9.776 81.608 -9.776 74.44C-9.776 67.272 -8.24 60.9573 -5.168 55.496C-2.096 50.0347 2.21333 45.8107 7.76 42.824C13.392 39.8373 19.8773 38.344 27.216 38.344C34.5547 38.344 40.9547 39.9227 46.416 43.08C51.8773 46.152 56.0587 50.5893 58.96 56.392C61.8613 62.1093 63.312 68.808 63.312 76.488V80.84H15.824C15.9093 84.8507 17.0187 87.9227 19.152 90.056C21.2853 92.104 24.144 93.128 27.728 93.128C30.288 93.128 32.4213 92.6587 34.128 91.72C35.8347 90.696 37.072 89.032 37.84 86.728L62.416 88.008C60.5387 95.2613 56.4853 100.851 50.256 104.776C44.0267 108.616 36.3467 110.536 27.216 110.536ZM38.48 67.528C38.3947 63.6027 37.328 60.5733 35.28 58.44C33.3173 56.3067 30.6293 55.24 27.216 55.24C23.9733 55.24 21.328 56.3493 19.28 58.568C17.232 60.7867 16.08 63.7733 15.824 67.528H38.48ZM67.143 18.12H91.975V56.52L88.647 56.776C89.3297 50.8027 91.6337 46.2373 95.559 43.08C99.4843 39.9227 104.263 38.344 109.895 38.344C117.575 38.344 123.42 40.7333 127.431 45.512C131.527 50.2907 133.575 56.648 133.575 64.584V109H108.743V70.088C108.743 65.8213 108.146 62.664 106.951 60.616C105.756 58.4827 103.751 57.416 100.935 57.416C97.9483 57.416 95.687 58.568 94.151 60.872C92.7003 63.0907 91.975 66.4187 91.975 70.856V109H67.143V18.12Z" fill="white"/>
</g>
<defs>
<clipPath id="clip0_1_2">
<rect width="128" height="128" rx="20" fill="white"/>
</clipPath>
</defs>
</svg>
